<svg xmlns="http://www.w3.org/2000/svg" xmlns:xlink="http://www.w3.org/1999/xlink" width="180" zoomAndPan="magnify" viewBox="0 0 135 135.000003" height="180" preserveAspectRatio="xMidYMid meet" version="1.0"><defs><clipPath id="49b2bcd444"><path d="M 1.445312 0.949219 L 133.21875 0.949219 L 133.21875 132.722656 L 1.445312 132.722656 Z M 1.445312 0.949219 " clip-rule="nonzero"/></clipPath></defs><g clip-path="url(#49b2bcd444)"><path fill="#000000" d="M 133.535156 66.996094 C 133.535156 103.449219 103.9375 133.046875 67.484375 133.046875 C 31.03125 133.046875 1.433594 103.449219 1.433594 66.996094 C 1.433594 30.542969 31.03125 0.945312 67.484375 0.945312 C 103.9375 0.945312 133.535156 30.542969 133.535156 66.996094 Z M 133.535156 66.996094 " fill-opacity="1" fill-rule="evenodd"/></g><path fill="#d9d9d9" d="M 98.691406 38.359375 C 98.742188 38.378906 98.785156 38.414062 98.808594 38.464844 C 108.976562 53.425781 114 70.304688 112.121094 89.734375 C 112.117188 89.816406 112.074219 89.890625 112.003906 89.941406 C 104.304688 95.601562 96.84375 99.035156 89.484375 101.3125 C 89.367188 101.347656 89.238281 101.304688 89.167969 101.203125 C 87.46875 98.839844 85.925781 96.34375 84.570312 93.722656 C 84.492188 93.566406 84.5625 93.386719 84.722656 93.324219 C 87.175781 92.398438 89.507812 91.289062 91.75 89.976562 C 91.929688 89.875 91.941406 89.621094 91.777344 89.5 C 91.300781 89.144531 90.828125 88.773438 90.378906 88.402344 C 90.292969 88.335938 90.179688 88.320312 90.082031 88.363281 C 75.519531 95.097656 59.566406 95.097656 44.828125 88.363281 C 44.730469 88.324219 44.617188 88.335938 44.535156 88.40625 C 44.085938 88.777344 43.613281 89.144531 43.140625 89.5 C 42.980469 89.621094 42.992188 89.875 43.167969 89.976562 C 45.410156 91.261719 47.742188 92.398438 50.195312 93.328125 C 50.351562 93.386719 50.425781 93.566406 50.351562 93.722656 C 49.027344 96.347656 47.484375 98.84375 45.75 101.207031 C 45.675781 101.304688 45.550781 101.347656 45.433594 101.3125 C 38.113281 99.035156 30.652344 95.601562 22.949219 89.941406 C 22.882812 89.890625 22.839844 89.8125 22.828125 89.730469 C 21.261719 72.925781 24.460938 55.90625 36.132812 38.460938 C 36.160156 38.414062 36.203125 38.378906 36.253906 38.359375 C 41.996094 35.71875 48.152344 33.777344 54.582031 32.671875 C 54.703125 32.652344 54.820312 32.707031 54.878906 32.8125 C 55.675781 34.21875 56.582031 36.023438 57.195312 37.5 C 63.976562 36.464844 70.863281 36.464844 77.785156 37.5 C 78.398438 36.054688 79.273438 34.21875 80.066406 32.8125 C 80.125 32.703125 80.242188 32.652344 80.363281 32.671875 C 86.796875 33.785156 92.949219 35.722656 98.691406 38.359375 Z M 52.550781 79.496094 C 57.058594 79.496094 60.644531 75.421875 60.644531 70.417969 C 60.714844 65.453125 57.09375 61.34375 52.550781 61.34375 C 48.042969 61.34375 44.457031 65.414062 44.457031 70.417969 C 44.457031 75.421875 48.113281 79.496094 52.550781 79.496094 Z M 82.472656 79.496094 C 87.019531 79.496094 90.566406 75.421875 90.566406 70.417969 C 90.636719 65.453125 87.019531 61.34375 82.472656 61.34375 C 77.964844 61.34375 74.378906 65.414062 74.378906 70.417969 C 74.378906 75.421875 78.035156 79.496094 82.472656 79.496094 Z M 82.472656 79.496094 " fill-opacity="1" fill-rule="evenodd"/></svg>