<svg xmlns="http://www.w3.org/2000/svg" xmlns:xlink="http://www.w3.org/1999/xlink" width="180" zoomAndPan="magnify" viewBox="0 0 135 135.000003" height="180" preserveAspectRatio="xMidYMid meet" version="1.0"><defs><clipPath id="63f491cd48"><path d="M 2.089844 1.59375 L 133 1.59375 L 133 132.625 L 2.089844 132.625 Z M 2.089844 1.59375 " clip-rule="nonzero"/></clipPath></defs><path fill="#d9d9d9" d="M 96.257812 52.617188 C 96.257812 52.617188 97.25 73.5 81.324219 86.394531 C 57.578125 105.679688 31.957031 90.03125 31.957031 90.03125 C 31.957031 90.03125 38.183594 90.140625 43.691406 88.652344 C 49.203125 87.167969 53.113281 83.640625 53.113281 83.640625 C 53.113281 83.640625 47.109375 82.371094 44.023438 80.113281 C 40.882812 77.855469 39.726562 73.5 39.726562 73.5 C 39.726562 73.5 41.765625 73.667969 43.085938 73.667969 C 44.410156 73.613281 46.007812 73.003906 46.007812 73.003906 C 46.007812 73.003906 41.707031 72.507812 37.6875 67.992188 C 34.546875 64.464844 34.765625 58.570312 34.765625 58.570312 C 34.765625 58.570312 36.640625 59.671875 37.6875 59.945312 C 38.679688 60.222656 40.605469 60.222656 40.605469 60.222656 C 40.605469 60.222656 36.859375 57.964844 35.152344 52.234375 C 33.5 46.445312 36.695312 40.605469 36.695312 40.605469 C 36.695312 40.605469 42.203125 47.328125 50.523438 51.679688 C 58.84375 56.035156 66.667969 55.871094 66.667969 55.871094 C 66.667969 55.871094 65.511719 52.398438 67.496094 47.328125 C 69.480469 42.203125 73.996094 38.566406 80.832031 38.015625 C 87.664062 37.464844 92.015625 42.644531 92.015625 42.644531 C 92.015625 42.644531 94.109375 42.257812 96.535156 41.378906 C 98.957031 40.496094 101.328125 39.394531 101.328125 39.394531 C 101.328125 39.394531 100.5 41.984375 98.847656 44.023438 C 97.195312 46.0625 95.320312 47.273438 95.320312 47.273438 C 95.320312 47.273438 97.46875 47.109375 99.621094 46.503906 C 101.769531 45.894531 102.980469 45.289062 102.980469 45.289062 C 100.609375 49.476562 96.257812 52.617188 96.257812 52.617188 Z M 96.257812 52.617188 " fill-opacity="1" fill-rule="nonzero"/><g clip-path="url(#63f491cd48)"><path fill="#d9d9d9" d="M 67.496094 132.402344 C 31.460938 132.402344 2.089844 103.089844 2.089844 67 C 2.089844 30.910156 31.460938 1.59375 67.496094 1.59375 C 103.53125 1.59375 132.898438 30.964844 132.898438 67 C 132.898438 103.035156 103.585938 132.402344 67.496094 132.402344 Z M 67.496094 5.175781 C 33.390625 5.175781 5.671875 32.890625 5.671875 67 C 5.671875 101.105469 33.390625 128.820312 67.496094 128.820312 C 101.601562 128.820312 129.320312 101.105469 129.320312 67 C 129.320312 32.890625 101.601562 5.175781 67.496094 5.175781 Z M 67.496094 5.175781 " fill-opacity="1" fill-rule="nonzero"/></g></svg>